# xmcd
#
# Track frame offsets:
# 150
# 37790
# 55758
# 85293
# 118795
# 149406
# 189164
# 228061
# 262047
# 285017
#
# Disc length: 4743 seconds
#
#
# Revision: 0
# Processed by: cddbd v1.5.2PL0 Copyright (c) Steve Scherf et al.
# Submitted via: FreeRIP 2.00 
#
DISCID=7a12850a
DTITLE=John Mayall and The Bluesbreakers - NO DAYS OFF
DYEAR=2003
DGENRE=Blues
TTITLE0=Southsode Story
TTITLE1=Kids Got The Blues
TTITLE2=Introduction
TTITLE3=Dirty Waters
TTITLE4=The Witching Hour
TTITLE5=Pieces And Parts
TTITLE6=The Mist Of Time
TTITLE7=Kokomo
TTITLE8=Demons In The Night
TTITLE9=No Days Off
EXTD=
EXTT0=
EXTT1=
EXTT2=
EXTT3=
EXTT4=
EXTT5=
EXTT6=
EXTT7=
EXTT8=
EXTT9=
PLAYORDER=
